<svg width="50" height="50" viewBox="0 0 79.375 79.375" xmlns:xlink="http://www.w3.org/1999/xlink" xmlns="http://www.w3.org/2000/svg"><defs><linearGradient xlink:href="#a" id="c" gradientUnits="userSpaceOnUse" x1="20.411" y1="-10.535" x2="34.568" y2="4.938"/><linearGradient id="a"><stop style="stop-color:#448fe5;stop-opacity:1" offset="0"/><stop style="stop-color:#d1566b;stop-opacity:1" offset="1"/></linearGradient><linearGradient xlink:href="#b" id="d" gradientUnits="userSpaceOnUse" x1="21.07" y1="-6.694" x2="29.739" y2="-.988"/><linearGradient id="b"><stop style="stop-color:#e44b73;stop-opacity:1" offset="0"/><stop style="stop-color:#9368af;stop-opacity:1" offset="1"/></linearGradient></defs><path style="fill:url(#c);fill-opacity:1;stroke-width:.406622" d="M25.311-13.95a.433.433 0 0 0-.399.435v1.349c0 .226.182.389.408.376a8.41 8.41 0 0 1 .81 0c.22.013.399-.15.399-.376v-1.349a.438.438 0 0 0-.41-.435c-.22-.01-.582-.01-.808 0zm1.582.476v1.352a.51.51 0 0 0 .403.48 8.105 8.105 0 0 1 2.924 1.214.51.51 0 0 0 .624-.053l.96-.96a.346.346 0 0 0-.036-.538 10.26 10.26 0 0 0-4.47-1.85.346.346 0 0 0-.405.355zm-2.75-.354a10.26 10.26 0 0 0-4.468 1.851.346.346 0 0 0-.036.538l.957.958c.16.16.437.179.624.053a8.105 8.105 0 0 1 2.924-1.214.51.51 0 0 0 .404-.48v-1.352a.346.346 0 0 0-.406-.354zm7.945 2.619-.952.952a.378.378 0 0 0 .02.557c.197.18.386.369.564.567a.376.376 0 0 0 .556.021l.954-.953c.16-.16.171-.43.018-.596a10.26 10.26 0 0 0-.565-.565.436.436 0 0 0-.595.017zm-13.327-.014c-.196.18-.384.37-.565.565a.437.437 0 0 0 .018.596l.95.95c.16.16.405.147.557-.02.178-.199.367-.388.564-.568a.378.378 0 0 0 .02-.557l-.949-.949a.436.436 0 0 0-.595-.017zm14.701 1.44-.957.958a.51.51 0 0 0-.054.624 8.105 8.105 0 0 1 1.214 2.926.51.51 0 0 0 .48.403h1.357c.227 0 .39-.182.355-.406A10.26 10.26 0 0 0 34-9.747a.347.347 0 0 0-.538-.036zm-16.018.04a10.26 10.26 0 0 0-1.854 4.465.346.346 0 0 0 .355.406h1.351a.51.51 0 0 0 .48-.403 8.105 8.105 0 0 1 1.213-2.926.51.51 0 0 0-.053-.624l-.954-.955a.346.346 0 0 0-.538.036zm-1.975 5.645c-.009.22-.009.583 0 .809.01.22.209.398.435.398h1.347c.226 0 .389-.182.377-.408a8.788 8.788 0 0 1 0-.809.37.37 0 0 0-.377-.399h-1.348a.437.437 0 0 0-.434.409zm18.344 0c.012.22.012.583 0 .809a.37.37 0 0 0 .377.398h1.347a.437.437 0 0 0 .435-.409c.009-.22.009-.582 0-.808a.432.432 0 0 0-.433-.399h-1.35a.375.375 0 0 0-.376.408zM15.59-2.12a10.26 10.26 0 0 0 1.854 4.466.346.346 0 0 0 .538.036l.954-.954a.51.51 0 0 0 .053-.624 8.105 8.105 0 0 1-1.213-2.927.51.51 0 0 0-.48-.403h-1.351a.346.346 0 0 0-.355.406zm18.075-.003A8.105 8.105 0 0 1 32.452.804a.51.51 0 0 0 .053.624l.954.954c.16.16.405.146.538-.036A10.26 10.26 0 0 0 35.85-2.12a.346.346 0 0 0-.354-.406h-1.352a.51.51 0 0 0-.479.403zm-14.5 3.837-.95.95a.437.437 0 0 0-.019.596c.181.196.37.384.565.565a.436.436 0 0 0 .595-.017l.949-.949a.378.378 0 0 0-.02-.557 8.105 8.105 0 0 1-.564-.567.376.376 0 0 0-.556-.021zm12.555.021a8.105 8.105 0 0 1-.564.567.378.378 0 0 0-.02.557l.949.95c.16.16.43.17.595.016.196-.18.384-.37.565-.565a.437.437 0 0 0-.018-.596l-.95-.95a.376.376 0 0 0-.557.021zm-11.124 1.35-.957.956a.346.346 0 0 0 .036.538 10.26 10.26 0 0 0 4.467 1.851.346.346 0 0 0 .406-.354V4.724a.51.51 0 0 0-.404-.48 8.105 8.105 0 0 1-2.924-1.213.51.51 0 0 0-.624.053zm9.625-.054a8.105 8.105 0 0 1-2.925 1.214.51.51 0 0 0-.403.48v1.35c0 .227.182.39.406.355a10.26 10.26 0 0 0 4.467-1.851.346.346 0 0 0 .036-.538l-.957-.957a.51.51 0 0 0-.624-.053zm-5.309 1.738v1.348c0 .226.183.425.409.435.22.01.583.01.809 0a.433.433 0 0 0 .399-.435V4.769a.373.373 0 0 0-.408-.376 8.41 8.41 0 0 1-.81 0 .369.369 0 0 0-.399.376z" transform="matrix(3.73999 0 0 3.73999 -56.507 53.521)"/><path style="fill:url(#d);fill-opacity:1;stroke-width:.2935" d="M26.53-7.377a.353.353 0 0 0-.32.228L23.792-.796a.353.353 0 0 0 .205.455l.779.296a.353.353 0 0 0 .455-.204l2.417-6.353a.353.353 0 0 0-.204-.455l-.779-.296a.353.353 0 0 0-.135-.024zm-4.601 1.764a.466.466 0 0 0-.353.162l-1.368 1.59a.248.248 0 0 0 0 .324l1.368 1.59a.466.466 0 0 0 .353.161h1.506a.098.098 0 0 0 .074-.161l-1.368-1.59a.248.248 0 0 1 0-.324l1.368-1.59a.098.098 0 0 0-.074-.162zm6.077 0a.098.098 0 0 0-.074.162l1.368 1.59a.248.248 0 0 1 0 .324l-1.368 1.59a.098.098 0 0 0 .074.161h1.506a.466.466 0 0 0 .353-.161l1.368-1.59a.248.248 0 0 0 0-.324l-1.368-1.59a.466.466 0 0 0-.353-.162z" transform="matrix(3.73999 0 0 3.73999 -56.507 53.521)"/></svg>